<svg xmlns="http://www.w3.org/2000/svg" width="1600" height="900" viewBox="0 0 1600 900" role="img" aria-label="Custom Software Development">
  <defs>
    <linearGradient id="bg" x1="0" y1="0" x2="1" y2="1">
      <stop offset="0%" stop-color="#0f172a"/>
      <stop offset="100%" stop-color="#1d4ed8"/>
    </linearGradient>
    <linearGradient id="card" x1="0" y1="0" x2="1" y2="1">
      <stop offset="0%" stop-color="#ffffff" stop-opacity="0.18"/>
      <stop offset="100%" stop-color="#ffffff" stop-opacity="0.04"/>
    </linearGradient>
  </defs>
  <rect width="1600" height="900" fill="url(#bg)"/>
  <circle cx="1320" cy="130" r="240" fill="#60a5fa" fill-opacity="0.2"/>
  <circle cx="210" cy="760" r="210" fill="#22d3ee" fill-opacity="0.15"/>
  <rect x="120" y="130" width="1360" height="640" rx="28" fill="url(#card)" stroke="#93c5fd" stroke-opacity="0.35"/>
  <g fill="#bfdbfe" opacity="0.6">
    <rect x="220" y="250" width="390" height="26" rx="8"/>
    <rect x="220" y="295" width="510" height="18" rx="6"/>
    <rect x="220" y="327" width="440" height="18" rx="6"/>
  </g>
  <g fill="#e0f2fe" opacity="0.85">
    <rect x="930" y="265" width="410" height="30" rx="8"/>
    <rect x="930" y="315" width="280" height="18" rx="6"/>
    <rect x="930" y="348" width="330" height="18" rx="6"/>
    <rect x="930" y="381" width="245" height="18" rx="6"/>
  </g>
  <text x="220" y="550" fill="#f8fafc" font-family="Segoe UI, Arial, sans-serif" font-size="68" font-weight="700">Custom Software</text>
  <text x="220" y="626" fill="#dbeafe" font-family="Segoe UI, Arial, sans-serif" font-size="50" font-weight="500">Development</text>
</svg>
