<svg xmlns="http://www.w3.org/2000/svg" width="1600" height="900" viewBox="0 0 1600 900" role="img" aria-label="Workflow Automation">
  <defs>
    <linearGradient id="bg" x1="0" y1="0" x2="1" y2="1">
      <stop offset="0%" stop-color="#1f2937"/>
      <stop offset="100%" stop-color="#b45309"/>
    </linearGradient>
  </defs>
  <rect width="1600" height="900" fill="url(#bg)"/>
  <circle cx="1370" cy="170" r="220" fill="#f59e0b" fill-opacity="0.25"/>
  <circle cx="210" cy="740" r="180" fill="#fbbf24" fill-opacity="0.2"/>
  <rect x="110" y="120" width="1380" height="660" rx="28" fill="#fff7ed" fill-opacity="0.08" stroke="#fde68a" stroke-opacity="0.4"/>
  <g fill="#fffbeb" fill-opacity="0.9">
    <rect x="220" y="250" width="280" height="92" rx="16"/>
    <rect x="660" y="250" width="280" height="92" rx="16"/>
    <rect x="1100" y="250" width="280" height="92" rx="16"/>
    <rect x="440" y="470" width="280" height="92" rx="16"/>
    <rect x="880" y="470" width="280" height="92" rx="16"/>
  </g>
  <g stroke="#fef3c7" stroke-width="10" stroke-linecap="round" fill="none" opacity="0.75">
    <path d="M500 296 L640 296"/>
    <path d="M940 296 L1080 296"/>
    <path d="M1240 345 L1020 470"/>
    <path d="M820 345 L620 470"/>
  </g>
  <text x="220" y="708" fill="#fffbeb" font-family="Segoe UI, Arial, sans-serif" font-size="64" font-weight="700">Workflow Automation</text>
</svg>
