<svg xmlns="http://www.w3.org/2000/svg" width="1600" height="900" viewBox="0 0 1600 900" role="img" aria-label="Company Overview Banner">
  <defs>
    <linearGradient id="bg" x1="0" y1="0" x2="1" y2="1">
      <stop offset="0%" stop-color="#030712"/>
      <stop offset="45%" stop-color="#0f172a"/>
      <stop offset="100%" stop-color="#1e3a8a"/>
    </linearGradient>
    <linearGradient id="panel" x1="0" y1="0" x2="1" y2="1">
      <stop offset="0%" stop-color="#ffffff" stop-opacity="0.16"/>
      <stop offset="100%" stop-color="#ffffff" stop-opacity="0.05"/>
    </linearGradient>
    <linearGradient id="accent" x1="0" y1="0" x2="1" y2="1">
      <stop offset="0%" stop-color="#38bdf8"/>
      <stop offset="50%" stop-color="#8b5cf6"/>
      <stop offset="100%" stop-color="#22c55e"/>
    </linearGradient>
  </defs>

  <rect width="1600" height="900" fill="url(#bg)"/>
  <circle cx="1340" cy="160" r="260" fill="#38bdf8" fill-opacity="0.15"/>
  <circle cx="240" cy="760" r="240" fill="#8b5cf6" fill-opacity="0.12"/>
  <circle cx="1180" cy="740" r="180" fill="#22c55e" fill-opacity="0.10"/>

  <rect x="110" y="120" width="1380" height="660" rx="34" fill="url(#panel)" stroke="#e2e8f0" stroke-opacity="0.16"/>

  <g transform="translate(160 200)">
    <rect x="0" y="0" width="520" height="430" rx="30" fill="#0f172a" fill-opacity="0.55" stroke="#94a3b8" stroke-opacity="0.18"/>
    <rect x="36" y="36" width="170" height="22" rx="8" fill="#e2e8f0" fill-opacity="0.85"/>
    <rect x="36" y="74" width="280" height="14" rx="6" fill="#cbd5e1" fill-opacity="0.7"/>
    <rect x="36" y="132" width="170" height="92" rx="18" fill="#0ea5e9" fill-opacity="0.20"/>
    <rect x="224" y="132" width="170" height="92" rx="18" fill="#8b5cf6" fill-opacity="0.20"/>
    <rect x="412" y="132" width="72" height="92" rx="18" fill="#22c55e" fill-opacity="0.22"/>
    <rect x="36" y="250" width="448" height="24" rx="8" fill="#f8fafc" fill-opacity="0.72"/>
    <rect x="36" y="290" width="390" height="18" rx="6" fill="#cbd5e1" fill-opacity="0.52"/>
    <rect x="36" y="322" width="330" height="18" rx="6" fill="#cbd5e1" fill-opacity="0.42"/>
  </g>

  <g transform="translate(760 170)">
    <rect x="0" y="0" width="660" height="470" rx="34" fill="#0f172a" fill-opacity="0.36" stroke="#e2e8f0" stroke-opacity="0.12"/>
    <g fill="none" stroke="url(#accent)" stroke-width="7" stroke-linecap="round" stroke-linejoin="round" opacity="0.95">
      <path d="M110 250 C160 170, 260 150, 320 205 C360 150, 470 145, 520 220 C585 210, 610 275, 570 320 C575 380, 500 410, 445 382 C400 420, 320 416, 287 372 C230 405, 155 390, 135 332 C85 320, 70 270, 110 250Z"/>
    </g>
    <circle cx="250" cy="244" r="90" fill="#ffffff" fill-opacity="0.08" stroke="#38bdf8" stroke-opacity="0.75" stroke-width="8"/>
    <circle cx="430" cy="238" r="68" fill="#ffffff" fill-opacity="0.06" stroke="#8b5cf6" stroke-opacity="0.75" stroke-width="8"/>
    <circle cx="330" cy="328" r="84" fill="#ffffff" fill-opacity="0.06" stroke="#22c55e" stroke-opacity="0.70" stroke-width="8"/>

    <g fill="#f8fafc" fill-opacity="0.9">
      <rect x="70" y="56" width="170" height="18" rx="8"/>
      <rect x="70" y="88" width="250" height="14" rx="6" fill-opacity="0.65"/>
      <rect x="70" y="120" width="210" height="14" rx="6" fill-opacity="0.45"/>
    </g>

    <g transform="translate(485 70)">
      <rect x="0" y="0" width="120" height="120" rx="26" fill="#0f172a" fill-opacity="0.52" stroke="#38bdf8" stroke-opacity="0.65"/>
      <path d="M32 60 L52 80 L88 38" fill="none" stroke="#38bdf8" stroke-width="10" stroke-linecap="round" stroke-linejoin="round"/>
    </g>

    <g transform="translate(78 316)">
      <rect x="0" y="0" width="170" height="88" rx="20" fill="#0f172a" fill-opacity="0.5"/>
      <rect x="22" y="20" width="126" height="14" rx="6" fill="#e2e8f0" fill-opacity="0.82"/>
      <rect x="22" y="48" width="92" height="12" rx="6" fill="#cbd5e1" fill-opacity="0.62"/>
    </g>

    <g transform="translate(266 316)">
      <rect x="0" y="0" width="170" height="88" rx="20" fill="#0f172a" fill-opacity="0.5"/>
      <rect x="22" y="20" width="126" height="14" rx="6" fill="#e2e8f0" fill-opacity="0.82"/>
      <rect x="22" y="48" width="104" height="12" rx="6" fill="#cbd5e1" fill-opacity="0.62"/>
    </g>
  </g>

  <text x="150" y="772" fill="#f8fafc" font-family="Segoe UI, Arial, sans-serif" font-size="66" font-weight="800">Company Overview</text>
  <text x="150" y="824" fill="#cbd5e1" font-family="Segoe UI, Arial, sans-serif" font-size="30" font-weight="500">Innovation, capability, and trusted digital delivery</text>
</svg>
